<svg width="158" height="34" viewBox="0 0 158 34" fill="none" xmlns="http://www.w3.org/2000/svg">
<path d="M4.02 14.524H13.776V11.104H4.02V3.58H15.216V0.196H0.348V25H15.54V21.616H4.02V14.524ZM32.6999 10.708C31.6199 8.8 29.3159 7.756 26.8679 7.756C22.1159 7.756 18.5519 11.572 18.5519 16.576C18.5519 21.76 22.3319 25.432 26.7239 25.432C29.3159 25.432 31.6199 24.1 32.6999 22.156V25H36.2279V8.188H32.6999V10.708ZM27.3359 22.12C24.3839 22.12 22.1159 19.6 22.1159 16.576C22.1159 13.588 24.3839 11.068 27.2639 11.068C29.9639 11.068 32.6639 13.336 32.6639 16.576C32.6639 19.744 30.1439 22.12 27.3359 22.12ZM46.7183 25.432C50.1743 25.432 53.3423 23.488 53.3423 20.284C53.3423 18.484 52.5503 16.252 48.9503 15.352L46.3943 14.74C45.3503 14.488 44.3783 13.912 44.3783 12.868C44.3783 11.716 45.3863 10.744 46.8623 10.744C48.1223 10.744 49.3823 11.572 49.3823 12.796H52.7663C52.7663 9.268 49.6703 7.756 46.7903 7.756C43.2983 7.756 40.8143 10.024 40.8143 12.76C40.8143 15.244 42.2543 16.864 45.3863 17.692L47.6543 18.232C48.9143 18.52 49.8143 19.096 49.8143 20.212C49.8143 21.472 48.6263 22.444 46.6823 22.444C44.7743 22.444 43.5863 21.292 43.5863 19.96H40.3103C40.3823 23.488 43.5863 25.432 46.7183 25.432ZM63.519 19.888L58.695 8.188H54.879L61.611 24.244L57.975 33.172H61.719L72.159 8.188H68.343L63.519 19.888ZM101.172 0.196H97.8596L89.3276 18.052L80.7956 0.196H77.4836L74.4596 25H78.1316L80.3276 7L87.7796 22.264H90.9476L98.3276 7L100.524 25H104.196L101.172 0.196ZM124.598 16.504C124.598 11.212 120.962 7.756 116.174 7.756C111.386 7.756 107.498 11.212 107.498 16.54C107.498 21.868 111.314 25.432 116.174 25.432C119.378 25.432 122.402 23.92 123.878 21.112L121.07 19.708C120.134 21.256 118.298 22.156 116.318 22.156C113.618 22.156 111.602 20.752 111.134 18.016H124.526C124.562 17.476 124.598 16.972 124.598 16.504ZM111.17 15.172C111.674 12.364 113.618 11.032 116.21 11.032C118.802 11.032 120.71 12.544 121.07 15.172H111.17ZM144.778 16.504C144.778 11.212 141.142 7.756 136.354 7.756C131.566 7.756 127.678 11.212 127.678 16.54C127.678 21.868 131.494 25.432 136.354 25.432C139.558 25.432 142.582 23.92 144.058 21.112L141.25 19.708C140.314 21.256 138.478 22.156 136.498 22.156C133.798 22.156 131.782 20.752 131.314 18.016H144.706C144.742 17.476 144.778 16.972 144.778 16.504ZM131.35 15.172C131.854 12.364 133.798 11.032 136.39 11.032C138.982 11.032 140.89 12.544 141.25 15.172H131.35ZM153.587 8.188V1.888H150.059V8.188H147.035V11.14H150.059V25H153.587V11.14H157.187V8.188H153.587Z" fill="black"/>
</svg>
