<svg width="88" height="19" viewBox="0 0 88 19" fill="none" xmlns="http://www.w3.org/2000/svg">
<path d="M2.9 8.18H8.32V6.28H2.9V2.1H9.12V0.22H0.86V14H9.3V12.12H2.9V8.18ZM18.8333 6.06C18.2333 5 16.9533 4.42 15.5933 4.42C12.9533 4.42 10.9733 6.54 10.9733 9.32C10.9733 12.2 13.0733 14.24 15.5133 14.24C16.9533 14.24 18.2333 13.5 18.8333 12.42V14H20.7933V4.66H18.8333V6.06ZM15.8533 12.4C14.2133 12.4 12.9533 11 12.9533 9.32C12.9533 7.66 14.2133 6.26 15.8133 6.26C17.3133 6.26 18.8133 7.52 18.8133 9.32C18.8133 11.08 17.4133 12.4 15.8533 12.4ZM26.6213 14.24C28.5413 14.24 30.3013 13.16 30.3013 11.38C30.3013 10.38 29.8613 9.14 27.8613 8.64L26.4413 8.3C25.8613 8.16 25.3213 7.84 25.3213 7.26C25.3213 6.62 25.8813 6.08 26.7013 6.08C27.4013 6.08 28.1013 6.54 28.1013 7.22H29.9813C29.9813 5.26 28.2613 4.42 26.6613 4.42C24.7213 4.42 23.3413 5.68 23.3413 7.2C23.3413 8.58 24.1413 9.48 25.8813 9.94L27.1413 10.24C27.8413 10.4 28.3413 10.72 28.3413 11.34C28.3413 12.04 27.6813 12.58 26.6013 12.58C25.5413 12.58 24.8813 11.94 24.8813 11.2H23.0613C23.1013 13.16 24.8813 14.24 26.6213 14.24ZM35.955 11.16L33.275 4.66H31.155L34.895 13.58L32.875 18.54H34.955L40.755 4.66H38.635L35.955 11.16ZM56.8731 0.22H55.0331L50.2931 10.14L45.5531 0.22H43.7131L42.0331 14H44.0731L45.2931 4L49.4331 12.48H51.1931L55.2931 4L56.5131 14H58.5531L56.8731 0.22ZM69.8878 9.28C69.8878 6.34 67.8678 4.42 65.2078 4.42C62.5478 4.42 60.3878 6.34 60.3878 9.3C60.3878 12.26 62.5078 14.24 65.2078 14.24C66.9878 14.24 68.6678 13.4 69.4878 11.84L67.9278 11.06C67.4078 11.92 66.3878 12.42 65.2878 12.42C63.7878 12.42 62.6678 11.64 62.4078 10.12H69.8478C69.8678 9.82 69.8878 9.54 69.8878 9.28ZM62.4278 8.54C62.7078 6.98 63.7878 6.24 65.2278 6.24C66.6678 6.24 67.7278 7.08 67.9278 8.54H62.4278ZM81.0988 9.28C81.0988 6.34 79.0788 4.42 76.4188 4.42C73.7588 4.42 71.5988 6.34 71.5988 9.3C71.5988 12.26 73.7188 14.24 76.4188 14.24C78.1988 14.24 79.8788 13.4 80.6988 11.84L79.1388 11.06C78.6188 11.92 77.5988 12.42 76.4988 12.42C74.9988 12.42 73.8788 11.64 73.6188 10.12H81.0588C81.0788 9.82 81.0988 9.54 81.0988 9.28ZM73.6388 8.54C73.9188 6.98 74.9988 6.24 76.4388 6.24C77.8788 6.24 78.9388 7.08 79.1388 8.54H73.6388ZM85.993 4.66V1.16H84.033V4.66H82.353V6.3H84.033V14H85.993V6.3H87.993V4.66H85.993Z" fill="black"/>
</svg>
